<svg width="20" height="20" viewBox="0 0 20 20" fill="none" xmlns="http://www.w3.org/2000/svg">
<g clip-path="url(#clip0)">
<path d="M16.2322 17.6201H4.98157C4.81581 17.6201 4.65684 17.5543 4.53963 17.4371C4.42242 17.3199 4.35657 17.1609 4.35657 16.9951V3.24512C4.35657 3.07936 4.42242 2.92039 4.53963 2.80318C4.65684 2.68597 4.81581 2.62012 4.98157 2.62012H12.4822L16.8572 6.99512V16.9951C16.8572 17.0772 16.841 17.1585 16.8096 17.2343C16.7782 17.3101 16.7322 17.379 16.6741 17.4371C16.6161 17.4951 16.5472 17.5411 16.4714 17.5725C16.3955 17.604 16.3143 17.6201 16.2322 17.6201Z" stroke="#808080" stroke-width="1.5" stroke-linecap="round" stroke-linejoin="round"/>
<path d="M12.4822 2.62012V6.99512H16.8578" stroke="#808080" stroke-width="1.5" stroke-linecap="round" stroke-linejoin="round"/>
<path d="M8.10718 10.7451H13.1072" stroke="#808080" stroke-width="1.5" stroke-linecap="round" stroke-linejoin="round"/>
<path d="M8.10718 13.2451H13.1072" stroke="#808080" stroke-width="1.5" stroke-linecap="round" stroke-linejoin="round"/>
</g>
<defs>
<clipPath id="clip0">
<rect width="20" height="20" fill="white"/>
</clipPath>
</defs>
</svg>
